<svg id="图层_1" data-name="图层 1" xmlns="http://www.w3.org/2000/svg" viewBox="0 0 222.15 223.27"><defs><style>.cls-1{fill:#36c;stroke:#fff;stroke-miterlimit:10;stroke-width:6px;}.cls-2{fill:#9cf;}</style></defs><path class="cls-1" d="M109.67,11c-55,0-100,45-100,100s45,100,100,100,100-45,100-100S164.67,11,109.67,11Zm45.56,130.55c-6.67,6.11-45.56,33.34-45.56,33.34V158.73c-35,0-63.88-25-63.88-55.55s28.88-55.56,63.88-55.56,63.89,25,63.89,55c0,15-7.22,28.89-18.33,38.89Z"/><path class="cls-2" d="M109.67,56.51c-30,0-53.88,20.56-53.88,46.11s24.44,46.11,53.88,46.11h6.67v9.45c12.22-8.89,28.33-20,32.22-23.89,10-8.89,15-20,15-32.22,0-24.45-23.89-45.56-53.89-45.56ZM81.9,110.4a8.34,8.34,0,1,1,0-16.67,8.19,8.19,0,0,1,8.33,8.34A8.54,8.54,0,0,1,81.9,110.4Zm27.77.56a9.13,9.13,0,0,1-8.88-8.89c0-4.45,4.44-8.89,8.88-8.89a8.89,8.89,0,1,1,0,17.78Zm30.56,0a9.14,9.14,0,0,1-8.89-8.89c0-4.45,4.45-8.89,8.89-8.89a8.89,8.89,0,1,1,0,17.78Z"/></svg>